Coordinates
version=1
nRows=13
nColumns=38
inDegrees=no

Units are S.I. units (second, meters, Newtons, ...)
If the header above contains a line with 'inDegrees', this indicates whether rotational values are in degrees (yes) or radians (no).

endheader
time	pelvis_tilt	pelvis_list	pelvis_rotation	pelvis_tx	pelvis_ty	pelvis_tz	hip_flexion_r	hip_adduction_r	hip_rotation_r	knee_angle_r	ankle_angle_r	subtalar_angle_r	mtp_angle_r	hip_flexion_l	hip_adduction_l	hip_rotation_l	knee_angle_l	ankle_angle_l	subtalar_angle_l	mtp_angle_l	lumbar_extension	lumbar_bending	lumbar_rotation	arm_flex_r	arm_add_r	arm_rot_r	elbow_flex_r	pro_sup_r	wrist_flex_r	wrist_dev_r	arm_flex_l	arm_add_l	arm_rot_l	elbow_flex_l	pro_sup_l	wrist_flex_l	wrist_dev_l
0.57	1.94091	1.3941	-0.092426	0.81447	0.152359	1.02779	0.255543	0.134232	-0.22259	0.290527	-0.114008	0	0	-0.122441	-0.285467	-0.102109	1.01766	-0.376211	0	0	-0.389164	0.19775	-0.0987298	-0.138649	-0.417138	0.32611	0.733282	0.877543	0	0	0.0306816	-0.526353	0.267767	0.801498	1.48497	0	0
0.58	1.94851	1.39624	-0.103776	0.814296	0.165238	1.02935	0.238866	0.136881	-0.221667	0.286767	-0.104713	0	0	-0.0986492	-0.279242	-0.0871242	1.0599	-0.328683	0	0	-0.389324	0.19527	-0.0931936	-0.139162	-0.41538	0.326125	0.731339	0.873676	0	0	0.0396788	-0.526603	0.301006	0.779549	1.46677	0	0
0.59	1.96054	1.39871	-0.120816	0.814127	0.178064	1.03127	0.221751	0.139461	-0.21772	0.283365	-0.0962814	0	0	-0.0763581	-0.272731	-0.0782521	1.09756	-0.277613	0	0	-0.390586	0.191732	-0.0871481	-0.138737	-0.413864	0.327047	0.728582	0.871257	0	0	0.0463686	-0.525203	0.327773	0.759328	1.45217	0	0
0.6	1.9756	1.40116	-0.141627	0.813896	0.19082	1.03342	0.203616	0.142458	-0.210955	0.279128	-0.0883361	0	0	-0.0549187	-0.266456	-0.0740531	1.13046	-0.229016	0	0	-0.39257	0.187755	-0.0806446	-0.138208	-0.412935	0.327946	0.726059	0.870222	0	0	0.0508898	-0.522474	0.3486	0.74128	1.44085	0	0
0.61	1.999	1.40416	-0.170531	0.813544	0.203475	1.03577	0.184078	0.14426	-0.203651	0.275678	-0.0805776	0	0	-0.034768	-0.259619	-0.0728856	1.158	-0.18555	0	0	-0.395889	0.182805	-0.0748895	-0.137364	-0.412006	0.328534	0.723783	0.869355	0	0	0.0531294	-0.519761	0.36433	0.726363	1.43302	0	0
0.62	2.02816	1.40704	-0.205601	0.813177	0.216043	1.0383	0.164012	0.145505	-0.195008	0.272296	-0.0744164	0	0	-0.0158732	-0.253085	-0.0744816	1.17949	-0.148719	0	0	-0.40018	0.177276	-0.069396	-0.135516	-0.411069	0.33	0.720885	0.868991	0	0	0.0529159	-0.517022	0.374536	0.714434	1.42754	0	0
0.63	2.06082	1.41029	-0.244163	0.812781	0.228575	1.04073	0.142026	0.145754	-0.18568	0.264371	-0.0697847	0	0	0.00245043	-0.246571	-0.0777066	1.19564	-0.118205	0	0	-0.404287	0.170907	-0.0650298	-0.133429	-0.4104	0.33232	0.718101	0.870313	0	0	0.0494234	-0.51493	0.37962	0.706223	1.42305	0	0
0.64	2.09771	1.41318	-0.287245	0.812376	0.241036	1.04329	0.118746	0.14558	-0.178506	0.255139	-0.0667292	0	0	0.0196677	-0.240829	-0.0822693	1.20579	-0.0912527	0	0	-0.408954	0.164142	-0.0609922	-0.130624	-0.409557	0.335143	0.714695	0.872239	0	0	0.0439221	-0.512954	0.38029	0.700273	1.41854	0	0
0.65	2.13397	1.41589	-0.329786	0.811939	0.253417	1.04579	0.0947806	0.144827	-0.174273	0.244171	-0.0652138	0	0	0.036839	-0.235845	-0.0874268	1.21073	-0.0703511	0	0	-0.413237	0.15712	-0.0573284	-0.127852	-0.408709	0.337983	0.711554	0.873896	0	0	0.0364326	-0.510834	0.376071	0.696621	1.41453	0	0
0.66	2.17001	1.41786	-0.372346	0.811476	0.265763	1.04829	0.0699665	0.144138	-0.17311	0.231664	-0.0649873	0	0	0.053353	-0.232409	-0.0939412	1.21041	-0.0536291	0	0	-0.417584	0.150451	-0.0535124	-0.124864	-0.408015	0.341267	0.708243	0.875294	0	0	0.0281333	-0.50825	0.369225	0.693639	1.41076	0	0
0.67	2.20431	1.42035	-0.413616	0.811134	0.278144	1.05049	0.044	0.142844	-0.171298	0.214858	-0.0660097	0	0	0.0698056	-0.2298	-0.10267	1.20569	-0.0381081	0	0	-0.420752	0.142713	-0.0500163	-0.122615	-0.407126	0.344383	0.705723	0.876299	0	0	0.0178584	-0.506149	0.359752	0.692463	1.40746	0	0
0.68	2.23598	1.42234	-0.452699	0.8108	0.290436	1.05254	0.0188785	0.141774	-0.170568	0.199127	-0.0677189	0	0	0.086171	-0.228233	-0.11165	1.19672	-0.025061	0	0	-0.423778	0.135176	-0.0461077	-0.120463	-0.406563	0.347442	0.703844	0.87672	0	0	0.00685486	-0.503846	0.348495	0.692251	1.4049	0	0
0.69	2.26745	1.42498	-0.49194	0.810423	0.302631	1.05433	-0.00364759	0.139536	-0.175359	0.186471	-0.0692625	0	0	0.102314	-0.226251	-0.121443	1.18334	-0.0140924	0	0	-0.426512	0.126804	-0.0419844	-0.118618	-0.406699	0.351296	0.703012	0.877934	0	0	-0.00439228	-0.501348	0.335704	0.693027	1.40092	0	0
